# xmcd
#
# Track frame offsets:
#	150
#	12537
#	29637
#	38975
#	51837
#	68087
#	82475
#	95562
#	112287
#	125450
#	139362
#	153925
#	163837
#	177262
#	191687
#	205537
#
# Disc length: 2967 seconds
#
# Revision: 3
# Processed by: cddbd v1.4PL0 Copyright (c) Steve Scherf et al.
# Submitted via: MusicWizard 6.0.2
#
DISCID=f00b9510
DTITLE=Various Artist - The Sound Of The Wild West
DYEAR=1983
DGENRE=Country
TTITLE0=Various Artist - Bonanza
TTITLE1=Various Artist - The Big Country
TTITLE2=Various Artist - The Man Who Shot Liberty Valance
TTITLE3=Various Artist - For A Few Dollars More
TTITLE4=Various Artist - Hang 'Em High
TTITLE5=Various Artist - Die Glorreichen Sieben
TTITLE6=Various Artist - The Hanging Tree
TTITLE7=Various Artist - Spiel Mir Das Lied Vom Tod
TTITLE8=Various Artist - The Good, The Bad And The Ugly
TTITLE9=Various Artist - High Chaparral
TTITLE10=Various Artist - Für Eine Handvoll Dollar
TTITLE11=Various Artist - Streets Of Laredo
TTITLE12=Various Artist - Shenandoah
TTITLE13=Various Artist - Red River Valley
TTITLE14=Various Artist - High Noon
TTITLE15=Various Artist - Das Lied Vom Tod  - Once Upon A Time In The West -
EXTD=
EXTT0=
EXTT1=
EXTT2=
EXTT3=
EXTT4=
EXTT5=
EXTT6=
EXTT7=
EXTT8=
EXTT9=
EXTT10=
EXTT11=
EXTT12=
EXTT13=
EXTT14=
EXTT15=
PLAYORDER=
